{
  "accessors": [
    {
      "bufferView": 2,
      "componentType": 5126,
      "count": 13785,
      "max": [
        0.3527805805206299,
        2.542069435119629,
        2.937091112136841
      ],
      "min": [
        -0.20778822898864746,
        2.0802395343780518,
        2.608388900756836
      ],
      "type": "VEC3"
    },
    {
      "bufferView": 2,
      "byteOffset": 165420,
      "componentType": 5126,
      "count": 13785,
      "max": [
        0.9999527335166931,
        0.999973714351654,
        0.9999718070030212
      ],
      "min": [
        -0.9999473690986633,
        -0.9998987317085266,
        -0.9999765753746033
      ],
      "type": "VEC3"
    },
    {
      "bufferView": 3,
      "componentType": 5126,
      "count": 13785,
      "max": [
        0.9999526143074036,
        0.9999738335609436,
        0.9995625615119934,
        1.0
      ],
      "min": [
        -0.9995652437210083,
        -0.9999655485153198,
        -0.9996268153190613,
        -1.0
      ],
      "type": "VEC4"
    },
    {
      "bufferView": 1,
      "componentType": 5126,
      "count": 13785,
      "max": [
        0.9980400204658508,
        0.988610029220581
      ],
      "min": [
        0.0019499999471008778,
        0.0019499999471008778
      ],
      "type": "VEC2"
    },
    {
      "bufferView": 0,
      "componentType": 5125,
      "count": 75990,
      "type": "SCALAR"
    },
    {
      "bufferView": 2,
      "byteOffset": 330840,
      "componentType": 5126,
      "count": 65532,
      "max": [
        1.8375489711761475,
        4.040270805358887,
        2.832571029663086
      ],
      "min": [
        -1.8245160579681396,
        -0.0011529922485351563,
        -2.9783339500427246
      ],
      "type": "VEC3"
    },
    {
      "bufferView": 2,
      "byteOffset": 1117224,
      "componentType": 5126,
      "count": 65532,
      "max": [
        0.999995231628418,
        0.9999735951423645,
        0.998926043510437
      ],
      "min": [
        -0.9999698400497437,
        -1.0,
        -0.9998700618743896
      ],
      "type": "VEC3"
    },
    {
      "bufferView": 3,
      "byteOffset": 220560,
      "componentType": 5126,
      "count": 65532,
      "max": [
        1.0,
        0.9999998807907104,
        0.9999997019767761,
        1.0
      ],
      "min": [
        -0.9990007877349854,
        -0.9999966025352478,
        -0.9999953508377075,
        -1.0
      ],
      "type": "VEC4"
    },
    {
      "bufferView": 1,
      "byteOffset": 110280,
      "componentType": 5126,
      "count": 65532,
      "max": [
        0.9558179974555969,
        0.9938539862632751
      ],
      "min": [
        0.018893999978899956,
        0.0019920000340789557
      ],
      "type": "VEC2"
    },
    {
      "bufferView": 0,
      "byteOffset": 303960,
      "componentType": 5125,
      "count": 325194,
      "type": "SCALAR"
    },
    {
      "bufferView": 2,
      "byteOffset": 1903608,
      "componentType": 5126,
      "count": 65532,
      "max": [
        1.8279938697814941,
        2.893610954284668,
        1.2971959114074707
      ],
      "min": [
        -1.8375489711761475,
        -0.0006089210510253906,
        -2.9758009910583496
      ],
      "type": "VEC3"
    },
    {
      "bufferView": 2,
      "byteOffset": 2689992,
      "componentType": 5126,
      "count": 65532,
      "max": [
        0.9999832510948181,
        0.9999931454658508,
        0.9999411106109619
      ],
      "min": [
        -0.9999206066131592,
        -1.0,
        -0.9998761415481567
      ],
      "type": "VEC3"
    },
    {
      "bufferView": 3,
      "byteOffset": 1269072,
      "componentType": 5126,
      "count": 65532,
      "max": [
        1.0,
        1.0,
        0.9999927282333374,
        1.0
      ],
      "min": [
        -0.9999554753303528,
        -0.9999939799308777,
        -0.9999997615814209,
        -1.0
      ],
      "type": "VEC4"
    },
    {
      "bufferView": 1,
      "byteOffset": 634536,
      "componentType": 5126,
      "count": 65532,
      "max": [
        0.9558179974555969,
        0.9960939884185791
      ],
      "min": [
        0.0019079999765381217,
        0.028783999383449554
      ],
      "type": "VEC2"
    },
    {
      "bufferView": 0,
      "byteOffset": 1604736,
      "componentType": 5125,
      "count": 313347,
      "type": "SCALAR"
    },
    {
      "bufferView": 2,
      "byteOffset": 3476376,
      "componentType": 5126,
      "count": 65533,
      "max": [
        0.8043699860572815,
        4.347542762756348,
        2.9783339500427246
      ],
      "min": [
        -1.7364590167999268,
        -0.0002009868621826172,
        -2.9744110107421875
      ],
      "type": "VEC3"
    },
    {
      "bufferView": 2,
      "byteOffset": 4262772,
      "componentType": 5126,
      "count": 65533,
      "max": [
        0.9999961256980896,
        1.0,
        0.9999632239341736
      ],
      "min": [
        -0.9999814629554749,
        -1.0,
        -0.9998472332954407
      ],
      "type": "VEC3"
    },
    {
      "bufferView": 3,
      "byteOffset": 2317584,
      "componentType": 5126,
      "count": 65533,
      "max": [
        1.0,
        1.0,
        0.999993085861206,
        1.0
      ],
      "min": [
        -0.9998809099197388,
        -0.9999316930770874,
        -0.9999836087226868,
        -1.0
      ],
      "type": "VEC4"
    },
    {
      "bufferView": 1,
      "byteOffset": 1158792,
      "componentType": 5126,
      "count": 65533,
      "max": [
        0.9558179974555969,
        0.9980080127716064
      ],
      "min": [
        0.0019079999765381217,
        0.0019920000340789557
      ],
      "type": "VEC2"
    },
    {
      "bufferView": 0,
      "byteOffset": 2858124,
      "componentType": 5125,
      "count": 312483,
      "type": "SCALAR"
    },
    {
      "bufferView": 2,
      "byteOffset": 5049168,
      "componentType": 5126,
      "count": 52916,
      "max": [
        1.7353029251098633,
        4.438543319702148,
        2.9686989784240723
      ],
      "min": [
        -1.8375489711761475,
        -0.00036597251892089844,
        -2.9307098388671875
      ],
      "type": "VEC3"
    },
    {
      "bufferView": 2,
      "byteOffset": 5684160,
      "componentType": 5126,
      "count": 52916,
      "max": [
        0.9999961256980896,
        0.999990701675415,
        0.999902606010437
      ],
      "min": [
        -0.9999839663505554,
        -1.0,
        -0.9985647201538086
      ],
      "type": "VEC3"
    },
    {
      "bufferView": 3,
      "byteOffset": 3366112,
      "componentType": 5126,
      "count": 52916,
      "max": [
        1.0,
        1.0,
        0.9999417066574097,
        1.0
      ],
      "min": [
        -0.9984756112098694,
        -0.9999994039535522,
        -0.9999958872795105,
        -1.0
      ],
      "type": "VEC4"
    },
    {
      "bufferView": 1,
      "byteOffset": 1683056,
      "componentType": 5126,
      "count": 52916,
      "max": [
        0.9558179974555969,
        0.9979900121688843
      ],
      "min": [
        0.0019079999765381217,
        0.0019920000340789557
      ],
      "type": "VEC2"
    },
    {
      "bufferView": 0,
      "byteOffset": 4108056,
      "componentType": 5125,
      "count": 233076,
      "type": "SCALAR"
    }
  ],
  "asset": {
    "extras": {
      "author": "glewindesign (https://sketchfab.com/glewin7)",
      "license": "CC-BY-4.0 (http://creativecommons.org/licenses/by/4.0/)",
      "source": "https://sketchfab.com/3d-models/xeno-final-4de8d849ac3d4dddb5043d3018e05b7c",
      "title": "Xeno Final"
    },
    "generator": "Sketchfab-12.65.0",
    "version": "2.0"
  },
  "bufferViews": [
    {
      "buffer": 0,
      "byteLength": 5040360,
      "name": "floatBufferViews",
      "target": 34963
    },
    {
      "buffer": 0,
      "byteLength": 2106384,
      "byteOffset": 5040360,
      "byteStride": 8,
      "name": "floatBufferViews",
      "target": 34962
    },
    {
      "buffer": 0,
      "byteLength": 6319152,
      "byteOffset": 7146744,
      "byteStride": 12,
      "name": "floatBufferViews",
      "target": 34962
    },
    {
      "buffer": 0,
      "byteLength": 4212768,
      "byteOffset": 13465896,
      "byteStride": 16,
      "name": "floatBufferViews",
      "target": 34962
    }
  ],
  "buffers": [
    {
      "byteLength": 17678664,
      "uri": "scene.bin"
    }
  ],
  "images": [
    {
      "uri": "textures/lambert1_baseColor.png"
    },
    {
      "uri": "textures/lambert1_metallicRoughness.png"
    },
    {
      "uri": "textures/lambert1_normal.png"
    },
    {
      "uri": "textures/lambert3_baseColor.png"
    },
    {
      "uri": "textures/lambert3_metallicRoughness.png"
    },
    {
      "uri": "textures/lambert3_normal.png"
    }
  ],
  "materials": [
    {
      "doubleSided": true,
      "name": "lambert1",
      "normalTexture": {
        "index": 2
      },
      "occlusionTexture": {
        "index": 1
      },
      "pbrMetallicRoughness": {
        "baseColorTexture": {
          "index": 0
        },
        "metallicRoughnessTexture": {
          "index": 1
        }
      }
    },
    {
      "doubleSided": true,
      "name": "lambert3",
      "normalTexture": {
        "index": 5
      },
      "occlusionTexture": {
        "index": 4
      },
      "pbrMetallicRoughness": {
        "baseColorTexture": {
          "index": 3
        },
        "metallicRoughnessTexture": {
          "index": 4
        }
      }
    }
  ],
  "meshes": [
    {
      "name": "Low_Poly_Teeth4:Group32_lambert1_0",
      "primitives": [
        {
          "attributes": {
            "NORMAL": 1,
            "POSITION": 0,
            "TANGENT": 2,
            "TEXCOORD_0": 3
          },
          "indices": 4,
          "material": 0,
          "mode": 4
        }
      ]
    },
    {
      "name": "Low_Poly_Teeth4:Group32_lambert3_0",
      "primitives": [
        {
          "attributes": {
            "NORMAL": 6,
            "POSITION": 5,
            "TANGENT": 7,
            "TEXCOORD_0": 8
          },
          "indices": 9,
          "material": 1,
          "mode": 4
        }
      ]
    },
    {
      "name": "Low_Poly_Teeth4:Group32_lambert3_0",
      "primitives": [
        {
          "attributes": {
            "NORMAL": 11,
            "POSITION": 10,
            "TANGENT": 12,
            "TEXCOORD_0": 13
          },
          "indices": 14,
          "material": 1,
          "mode": 4
        }
      ]
    },
    {
      "name": "Low_Poly_Teeth4:Group32_lambert3_0",
      "primitives": [
        {
          "attributes": {
            "NORMAL": 16,
            "POSITION": 15,
            "TANGENT": 17,
            "TEXCOORD_0": 18
          },
          "indices": 19,
          "material": 1,
          "mode": 4
        }
      ]
    },
    {
      "name": "Low_Poly_Teeth4:Group32_lambert3_0",
      "primitives": [
        {
          "attributes": {
            "NORMAL": 21,
            "POSITION": 20,
            "TANGENT": 22,
            "TEXCOORD_0": 23
          },
          "indices": 24,
          "material": 1,
          "mode": 4
        }
      ]
    }
  ],
  "nodes": [
    {
      "children": [
        1
      ],
      "matrix": [
        1.0,
        0.0,
        0.0,
        0.0,
        0.0,
        2.220446049250313e-16,
        -1.0,
        0.0,
        0.0,
        1.0,
        2.220446049250313e-16,
        0.0,
        0.0,
        0.0,
        0.0,
        1.0
      ],
      "name": "Sketchfab_model"
    },
    {
      "children": [
        2
      ],
      "matrix": [
        1.0,
        0.0,
        0.0,
        0.0,
        0.0,
        0.0,
        1.0,
        0.0,
        0.0,
        -1.0,
        0.0,
        0.0,
        0.0,
        0.0,
        0.0,
        1.0
      ],
      "name": "5b04465417e340809a183efbce2d5012.fbx"
    },
    {
      "children": [
        3
      ],
      "name": "RootNode"
    },
    {
      "children": [
        4,
        5,
        6,
        7,
        8
      ],
      "name": "Low_Poly_Teeth4:Group32"
    },
    {
      "mesh": 0,
      "name": "Low_Poly_Teeth4:Group32_lambert1_0"
    },
    {
      "mesh": 1,
      "name": "Low_Poly_Teeth4:Group32_lambert3_0"
    },
    {
      "mesh": 2,
      "name": "Low_Poly_Teeth4:Group32_lambert3_0"
    },
    {
      "mesh": 3,
      "name": "Low_Poly_Teeth4:Group32_lambert3_0"
    },
    {
      "mesh": 4,
      "name": "Low_Poly_Teeth4:Group32_lambert3_0"
    }
  ],
  "samplers": [
    {
      "magFilter": 9729,
      "minFilter": 9987,
      "wrapS": 10497,
      "wrapT": 10497
    }
  ],
  "scene": 0,
  "scenes": [
    {
      "name": "Sketchfab_Scene",
      "nodes": [
        0
      ]
    }
  ],
  "textures": [
    {
      "sampler": 0,
      "source": 0
    },
    {
      "sampler": 0,
      "source": 1
    },
    {
      "sampler": 0,
      "source": 2
    },
    {
      "sampler": 0,
      "source": 3
    },
    {
      "sampler": 0,
      "source": 4
    },
    {
      "sampler": 0,
      "source": 5
    }
  ]
}
